<svg width="24" height="24" viewBox="0 0 24 24" fill="none" xmlns="http://www.w3.org/2000/svg">
<path fill-rule="evenodd" clip-rule="evenodd" d="M11.75 18.5C11.2637 18.5 10.8696 18.1058 10.8696 17.6196L10.8696 5.88044C10.8696 5.39418 11.2637 5 11.75 5C12.2362 5 12.6304 5.39418 12.6304 5.88043L12.6304 17.6196C12.6304 18.1058 12.2362 18.5 11.75 18.5Z" fill="#242533"/>
<path fill-rule="evenodd" clip-rule="evenodd" d="M18.2421 12.3725C17.8983 12.7163 17.3408 12.7163 16.997 12.3725L11.75 7.12549L6.503 12.3725C6.15916 12.7163 5.6017 12.7163 5.25787 12.3725C4.91404 12.0287 4.91404 11.4712 5.25787 11.1274L11.1274 5.25781C11.4713 4.91398 12.0287 4.91398 12.3726 5.25781L18.2421 11.1274C18.586 11.4712 18.586 12.0287 18.2421 12.3725Z" fill="#242533"/>
</svg>
