<svg width="36" height="32" viewBox="0 0 36 32" fill="none" xmlns="http://www.w3.org/2000/svg">
<path d="M22.763 10.8135V14.7034H18.873" stroke="#484964" stroke-width="1.2" stroke-linecap="round" stroke-linejoin="round"/>
<path d="M8.5 21.1865V17.2966H12.3899" stroke="#484964" stroke-width="1.2" stroke-linecap="round" stroke-linejoin="round"/>
<path d="M10.1273 14.0551C10.4561 13.1259 11.0149 12.2952 11.7516 11.6404C12.4883 10.9856 13.3789 10.5281 14.3402 10.3106C15.3016 10.0931 16.3024 10.1226 17.2492 10.3965C18.196 10.6704 19.058 11.1796 19.7548 11.8768L22.763 14.7034M8.5 17.2967L11.5082 20.1234C12.205 20.8205 13.067 21.3298 14.0138 21.6036C14.9607 21.8775 15.9614 21.9071 16.9228 21.6896C17.8841 21.472 18.7747 21.0145 19.5114 20.3598C20.2481 19.705 20.8069 18.8742 21.1357 17.945" stroke="#484964" stroke-width="1.2" stroke-linecap="round" stroke-linejoin="round"/>
</svg>
