<svg width="32" height="32" viewBox="0 0 32 32" fill="none" xmlns="http://www.w3.org/2000/svg">
<path d="M15.9998 17.5834C16.8743 17.5834 17.5832 16.8745 17.5832 16.0001C17.5832 15.1256 16.8743 14.4167 15.9998 14.4167C15.1254 14.4167 14.4165 15.1256 14.4165 16.0001C14.4165 16.8745 15.1254 17.5834 15.9998 17.5834Z" stroke="#484964" stroke-width="1.5" stroke-linecap="round" stroke-linejoin="round"/>
<path d="M21.8333 17.5834C22.7078 17.5834 23.4167 16.8745 23.4167 16.0001C23.4167 15.1256 22.7078 14.4167 21.8333 14.4167C20.9589 14.4167 20.25 15.1256 20.25 16.0001C20.25 16.8745 20.9589 17.5834 21.8333 17.5834Z" stroke="#484964" stroke-width="1.5" stroke-linecap="round" stroke-linejoin="round"/>
<path d="M10.1668 17.5834C11.0413 17.5834 11.7502 16.8745 11.7502 16.0001C11.7502 15.1256 11.0413 14.4167 10.1668 14.4167C9.29238 14.4167 8.5835 15.1256 8.5835 16.0001C8.5835 16.8745 9.29238 17.5834 10.1668 17.5834Z" stroke="#484964" stroke-width="1.5" stroke-linecap="round" stroke-linejoin="round"/>
</svg>
